<?xml version="1.0" standalone="no"?>
<!DOCTYPE svg PUBLIC "-//W3C//DTD SVG 20010904//EN"
 "http://www.w3.org/TR/2001/REC-SVG-20010904/DTD/svg10.dtd">
<svg version="1.0" xmlns="http://www.w3.org/2000/svg"
 width="240.000000pt" height="240.000000pt" viewBox="0 0 240.000000 240.000000"
 preserveAspectRatio="xMidYMid meet">

<g transform="translate(0.000000,240.000000) scale(0.100000,-0.100000)"
fill="#000000" stroke="none">
<path d="M2155 1900 c-16 -4 -66 -8 -111 -9 -92 -1 -124 -17 -201 -97 -23 -24
-46 -44 -52 -44 -27 0 -70 25 -101 58 -76 82 -105 88 -326 73 -128 -9 -174 -8
-237 3 -111 20 -313 10 -339 -16 -10 -10 -22 -18 -26 -18 -27 0 -86 -102 -117
-202 -10 -32 -23 -58 -30 -58 -8 0 -11 -14 -7 -45 5 -55 -2 -77 -22 -69 -17 7
-19 51 -3 72 5 6 6 12 1 12 -5 0 -10 16 -12 36 -1 20 -13 57 -27 83 -14 25
-35 73 -47 106 -33 85 -59 100 -190 108 -113 7 -156 0 -209 -36 l-34 -23 0
-174 c0 -96 4 -198 9 -227 10 -59 -2 -117 -24 -119 -54 -4 -50 55 -50 -659 l0
-655 1200 0 1200 0 0 625 0 624 -45 -3 c-49 -3 -52 1 -30 44 14 27 14 29 -2
23 -12 -5 -15 -2 -10 10 9 24 -6 29 -33 10 -13 -9 -36 -18 -52 -20 -26 -3 -28
-1 -22 25 6 24 30 86 70 180 56 130 106 272 106 301 0 40 -22 61 -64 61 -16 0
-45 7 -65 15 -38 16 -52 17 -98 5z m-566 -79 c19 -5 33 -29 71 -121 40 -98
123 -275 136 -289 9 -10 37 43 109 204 41 94 80 177 85 185 7 11 40 16 142 21
73 3 152 4 176 1 38 -4 42 -7 36 -26 -19 -64 -171 -351 -295 -556 -239 -396
-288 -480 -352 -611 l-62 -126 -170 -6 c-100 -4 -174 -2 -179 3 -12 12 1 42
166 378 l140 282 -27 68 c-15 37 -71 151 -125 253 -100 189 -150 297 -150 323
0 11 14 16 48 19 81 6 226 5 251 -2z m-1128 -23 c4 -6 10 -59 13 -117 10 -175
26 -351 42 -441 23 -136 65 -303 74 -293 12 13 73 263 129 528 28 132 57 260
65 285 l13 45 174 -4 c96 -1 178 -7 182 -11 10 -9 -50 -241 -127 -495 -62
-205 -261 -793 -271 -803 -11 -11 -343 -8 -354 3 -13 13 -102 291 -141 440
-77 297 -166 833 -142 857 26 26 328 31 343 6z m821 -205 c56 -60 97 -196 62
-210 -17 -6 -54 30 -72 70 -7 15 -16 26 -20 23 -4 -2 -14 -1 -22 4 -9 5 -20 4
-28 -3 -11 -9 -13 -2 -11 39 3 59 23 104 47 104 10 0 30 -12 44 -27z m-59
-167 c4 -10 0 -14 -13 -13 -14 1 -16 4 -8 14 13 16 15 16 21 -1z m-5 -60 c2
-18 0 -26 -7 -21 -14 8 -14 -8 0 -22 8 -8 4 -11 -14 -10 -14 1 -23 6 -20 11 3
5 7 23 8 40 3 40 3 38 18 34 6 -3 13 -17 15 -32z m1002 -115 c0 -5 -9 -7 -20
-4 -11 3 -20 7 -20 9 0 2 9 4 20 4 11 0 20 -4 20 -9z"/>
</g>
</svg>
