<?xml version="1.0" standalone="no"?>
<!DOCTYPE svg PUBLIC "-//W3C//DTD SVG 20010904//EN"
 "http://www.w3.org/TR/2001/REC-SVG-20010904/DTD/svg10.dtd">
<svg version="1.0" xmlns="http://www.w3.org/2000/svg"
 width="1000.000000pt" height="1000.000000pt" viewBox="0 0 1000.000000 1000.000000"
 preserveAspectRatio="xMidYMid meet">

<g transform="translate(0.000000,1000.000000) scale(0.100000,-0.100000)"
fill="#000000" stroke="none">
<path d="M4895 9189 c-264 -33 -448 -77 -592 -144 -254 -117 -495 -347 -717
-683 -139 -210 -889 -1472 -1106 -1862 -124 -221 -244 -468 -294 -602 -40
-107 -105 -416 -130 -616 -36 -284 -8 -603 75 -854 73 -222 175 -383 321 -508
131 -111 411 -270 540 -306 31 -9 119 -18 214 -21 132 -5 175 -3 240 12 111
24 174 50 213 85 18 17 37 28 41 23 4 -4 28 -40 54 -80 75 -114 179 -204 318
-274 96 -48 116 -62 111 -76 -21 -60 -187 -389 -221 -440 -102 -150 -296 -322
-447 -395 -135 -65 -204 -78 -282 -53 -31 10 -39 -14 -22 -72 62 -225 478
-273 750 -87 44 31 83 53 86 50 10 -10 -98 -451 -147 -596 -59 -176 -110 -377
-146 -570 -54 -294 -16 -422 159 -542 123 -84 468 -237 662 -293 150 -43 209
-50 425 -49 292 1 492 38 765 142 242 91 368 198 460 387 56 116 69 183 61
311 -9 151 -10 155 -198 789 -123 414 -129 438 -111 431 9 -4 64 -35 122 -70
148 -89 157 -93 253 -111 77 -14 93 -14 158 -1 85 18 147 52 211 116 89 89
127 157 98 175 -6 4 -46 -3 -89 -16 -69 -19 -84 -21 -119 -10 -80 23 -223 134
-410 315 -76 74 -157 181 -229 302 -49 82 -128 277 -114 282 6 2 50 26 99 55
70 41 120 83 241 203 l153 152 61 -25 c95 -38 212 -48 396 -35 344 26 488 71
675 209 193 144 308 315 382 569 36 124 92 407 106 539 37 352 -44 744 -257
1242 -176 412 -335 696 -584 1043 -168 235 -338 503 -469 744 -157 287 -290
475 -483 682 -267 287 -409 385 -668 463 -243 73 -422 94 -615 70z m317 -53
c43 -7 80 -15 84 -18 3 -3 -2 -30 -10 -59 -31 -102 -17 -280 28 -367 43 -83
232 -231 370 -289 209 -88 383 -81 537 23 28 19 54 34 58 34 9 -1 191 -249
191 -262 0 -2 -20 -2 -44 0 -40 4 -46 1 -69 -30 -24 -32 -25 -38 -24 -165 1
-86 -3 -136 -11 -145 -8 -11 -8 -23 2 -51 13 -39 12 -175 -2 -189 -4 -4 -42 5
-83 21 -115 44 -411 137 -529 166 -58 14 -136 28 -175 31 l-70 5 -90 -153
c-125 -212 -318 -549 -351 -613 l-28 -53 -82 166 c-97 198 -379 662 -402 662
-4 0 -96 -22 -205 -49 l-197 -48 16 26 c9 14 27 37 40 51 12 14 26 37 29 53 4
15 11 27 16 27 5 0 13 8 16 17 4 9 12 24 19 33 121 146 157 207 169 280 9 58
43 137 61 144 8 3 14 19 14 38 0 22 10 45 31 68 16 19 51 59 77 89 26 29 48
59 50 65 10 33 73 169 87 186 6 8 20 35 29 60 9 25 31 65 49 90 26 37 32 55
32 97 l0 52 40 6 c22 2 51 6 65 9 56 8 190 4 262 -8z m325 -71 c139 -46 215
-85 317 -163 77 -59 238 -213 329 -316 l70 -80 -47 -42 c-85 -77 -201 -108
-334 -87 -149 23 -279 87 -424 207 -89 75 -123 129 -138 219 -15 88 -8 229 14
280 20 46 15 46 213 -18z m-894 -1494 c118 -189 199 -340 323 -600 l30 -64 38
79 c49 102 103 200 299 533 l160 274 61 -6 c76 -7 218 -44 401 -104 132 -43
315 -110 323 -118 2 -1 -36 -56 -85 -122 -163 -218 -255 -370 -623 -1028 -198
-356 -217 -392 -290 -555 l-56 -125 -210 -3 -211 -2 -18 47 c-27 72 -90 195
-139 271 -24 38 -95 165 -158 283 -137 255 -183 334 -341 584 -158 251 -298
464 -361 550 -29 38 -55 75 -59 82 -10 15 49 42 218 98 144 49 496 143 535
144 23 1 41 -24 163 -218z m1583 -206 c-9 -35 28 -138 72 -203 20 -29 42 -61
47 -70 6 -9 18 -25 27 -36 10 -10 33 -52 53 -92 19 -40 48 -88 63 -106 16 -18
36 -46 45 -63 8 -16 29 -43 46 -60 38 -37 38 -46 2 -88 -25 -27 -30 -44 -33
-91 l-3 -58 -52 -20 c-31 -11 -76 -41 -108 -70 -156 -142 -176 -395 -52 -648
57 -117 170 -232 277 -283 77 -37 196 -63 251 -55 56 8 28 -9 -48 -31 -82 -24
-109 -40 -137 -83 -21 -33 -23 -110 -3 -141 16 -25 12 -53 -6 -39 -17 13 -107
42 -131 42 -12 0 -34 7 -50 15 -16 8 -45 15 -65 14 -20 -1 -137 10 -261 24
-386 44 -900 77 -1215 77 -427 0 -981 -54 -1253 -123 -53 -13 -99 -20 -111
-16 -30 12 -85 -8 -137 -48 -54 -41 -103 -63 -138 -63 -14 0 -30 -9 -39 -23
-13 -20 -101 -57 -137 -57 -7 0 -36 -17 -64 -38 -77 -57 -106 -73 -116 -67 -6
3 -10 53 -10 110 l0 104 33 30 c17 17 59 50 92 74 84 61 118 113 121 185 1 31
-2 64 -7 74 -6 12 -6 18 1 18 5 0 10 5 10 11 0 25 44 109 57 109 8 0 48 10 88
21 60 18 89 34 157 89 172 139 249 298 280 570 20 183 -16 371 -107 549 -21
42 -23 56 -16 99 6 40 16 58 46 86 21 20 42 36 47 36 4 0 18 21 31 47 12 26
33 58 46 70 13 13 20 23 16 23 -4 0 -1 8 8 18 15 17 17 21 17 42 0 31 33 -13
172 -227 187 -288 284 -450 412 -691 54 -101 132 -241 175 -310 42 -70 94
-171 115 -226 l39 -98 233 4 c189 3 236 6 248 18 8 8 40 76 72 150 100 231
646 1196 803 1417 86 122 109 145 97 98z m-2890 -311 c64 -17 187 -106 238
-171 46 -59 120 -210 140 -286 57 -219 35 -456 -61 -657 -37 -77 -59 -108
-118 -167 -90 -88 -137 -120 -206 -139 -121 -32 -256 -7 -352 63 -181 133
-287 380 -287 666 1 314 156 597 373 679 96 37 171 40 273 12z m3397 -589
c101 -21 180 -68 273 -160 64 -63 90 -98 123 -165 108 -221 90 -435 -50 -571
-206 -201 -584 -65 -745 267 -44 90 -47 103 -52 194 -5 109 7 178 45 254 46
91 145 165 247 186 61 12 84 11 159 -5z m-1403 -1230 c173 -6 520 -31 580 -41
19 -4 42 -12 50 -18 21 -17 196 -116 204 -116 17 0 119 -73 188 -136 42 -38
91 -78 109 -89 18 -11 37 -33 42 -50 5 -16 12 -140 14 -275 4 -222 3 -255 -17
-350 -55 -271 -124 -394 -343 -607 -127 -124 -225 -192 -364 -254 -115 -50
-177 -63 -428 -88 -401 -40 -534 -36 -840 25 -166 33 -237 59 -415 152 -220
115 -315 214 -425 447 -53 113 -128 362 -144 481 -12 89 0 372 20 476 11 56
15 61 48 74 111 43 259 152 372 275 36 38 40 40 140 54 171 23 342 37 569 45
210 7 300 6 640 -5z m-2937 -831 c135 -54 258 -167 297 -271 27 -71 38 -204
21 -256 -20 -59 -38 -61 -108 -14 -158 107 -259 213 -332 347 -33 61 -91 198
-91 214 0 24 139 11 213 -20z m1909 -1158 c93 -35 288 -74 483 -96 144 -17
190 -18 305 -10 368 27 572 55 662 91 28 11 55 16 59 12 4 -4 24 -50 43 -101
40 -105 88 -191 171 -307 84 -116 111 -146 247 -267 217 -194 302 -244 397
-235 31 3 64 8 74 12 32 13 17 -11 -44 -74 -105 -108 -218 -141 -364 -107 -54
13 -103 37 -214 104 -79 47 -149 96 -156 107 -10 15 -135 517 -135 540 0 11
-39 4 -42 -7 -10 -30 114 -562 199 -853 66 -229 127 -442 194 -680 31 -107 41
-163 45 -245 3 -58 7 -117 9 -132 8 -50 -14 -131 -61 -227 -82 -167 -210 -271
-440 -357 -380 -144 -782 -180 -1099 -99 -110 28 -385 135 -520 202 -184 92
-266 159 -307 248 -32 69 -31 223 0 385 34 173 96 414 131 510 18 47 47 150
67 230 49 198 224 991 224 1012 0 24 -19 33 -35 17 -7 -8 -27 -79 -45 -159
-17 -80 -45 -202 -62 -272 l-30 -128 -81 -56 c-155 -106 -236 -134 -399 -134
-152 0 -260 43 -309 124 -26 42 -24 46 14 40 79 -13 305 87 440 195 90 71 225
216 281 300 43 64 193 363 210 419 9 27 9 27 88 -2z"/>
<path d="M5594 5077 c-76 -25 -165 -80 -209 -129 -43 -47 -105 -162 -105 -193
0 -34 22 -10 60 65 49 96 100 149 188 192 57 28 79 34 155 37 83 3 93 1 153
-29 92 -45 188 -137 213 -205 19 -50 38 -164 43 -263 4 -64 23 -51 26 20 4 78
-12 181 -40 255 -28 77 -128 177 -222 223 -55 27 -81 34 -144 37 -46 2 -93 -3
-118 -10z"/>
<path d="M4225 5063 c-115 -48 -238 -164 -289 -273 -27 -59 -31 -76 -34 -185
-3 -109 6 -161 23 -143 3 3 7 59 9 124 2 80 8 134 20 164 36 100 157 223 266
273 66 31 196 29 267 -2 68 -30 141 -108 187 -199 35 -69 56 -90 56 -56 0 34
-62 145 -111 198 -74 81 -139 109 -259 113 -72 2 -105 -1 -135 -14z"/>
<path d="M4201 4899 c-120 -69 -166 -144 -197 -322 -29 -163 -1 -375 65 -505
44 -87 165 -192 220 -192 26 -1 26 -1 -9 -29 -46 -39 -32 -51 19 -18 48 32
200 54 246 37 32 -12 55 -13 55 -2 0 5 -18 14 -41 21 l-40 12 35 39 c114 126
140 206 141 420 0 137 -3 163 -24 225 -36 106 -77 177 -141 244 -73 76 -123
101 -210 101 -54 0 -74 -5 -119 -31z m255 -78 c30 -14 54 -37 84 -81 68 -100
80 -146 47 -187 -17 -23 -71 -14 -127 20 -45 26 -60 43 -87 95 -39 75 -42 116
-11 149 26 28 40 28 94 4z m-76 -235 c20 -25 8 -61 -21 -64 -36 -4 -55 21 -41
53 13 28 43 33 62 11z m-72 -196 c18 -11 39 -34 46 -50 7 -17 15 -28 18 -24 4
3 5 -2 3 -13 -11 -55 -14 -113 -5 -113 6 0 10 9 10 20 0 43 28 77 77 94 91 31
142 18 167 -45 36 -90 19 -162 -63 -267 -58 -73 -87 -86 -196 -86 -94 -1 -134
13 -178 62 -34 38 -71 162 -71 242 -1 69 2 79 33 127 51 76 96 91 159 53z"/>
<path d="M5604 4910 c-106 -42 -201 -161 -251 -315 -37 -117 -44 -289 -14
-405 28 -111 60 -176 116 -232 l45 -46 -37 -12 c-58 -19 -66 -34 -13 -25 25 5
59 8 75 8 48 0 146 -23 172 -40 28 -19 43 -9 21 13 -15 15 -11 19 43 46 93 47
159 113 202 206 63 132 81 277 57 444 -21 143 -116 305 -206 349 -66 31 -144
35 -210 9z m55 -96 c26 -33 26 -55 1 -123 -27 -71 -74 -126 -121 -145 -81 -33
-129 -12 -129 56 0 80 74 178 164 219 54 24 61 24 85 -7z m49 -261 c2 -24 -2
-34 -17 -43 -31 -16 -61 3 -61 39 0 36 8 43 45 39 26 -3 30 -8 33 -35z m141
-178 c45 -52 62 -131 47 -225 -18 -113 -29 -141 -71 -176 -135 -110 -286 -95
-382 39 -61 84 -80 230 -38 277 31 34 85 45 129 26 21 -9 43 -13 50 -9 6 3 8
3 4 -2 -4 -4 4 -21 17 -37 14 -16 28 -42 31 -56 14 -67 19 -56 18 37 -1 56 2
99 6 96 4 -3 10 2 14 10 9 25 69 55 107 55 30 0 43 -7 68 -35z"/>
<path d="M4440 3655 c0 -8 21 -49 46 -92 83 -138 73 -127 94 -108 17 15 23 13
101 -45 46 -34 111 -74 144 -91 154 -76 355 -36 527 105 64 53 67 54 80 35 12
-19 17 -15 75 69 66 96 74 112 57 119 -6 2 -33 -28 -60 -67 -27 -38 -51 -70
-54 -70 -3 0 -20 29 -37 64 l-31 63 -59 -28 c-72 -36 -213 -53 -381 -47 -111
5 -152 13 -303 64 -11 4 -22 -11 -41 -55 -15 -34 -30 -61 -35 -61 -4 1 -30 37
-56 80 -46 76 -67 97 -67 65z m678 -219 c37 -19 75 -41 86 -48 17 -14 15 -16
-31 -36 -107 -46 -244 -47 -330 -3 l-33 16 32 34 c73 78 169 91 276 37z"/>
</g>
</svg>
