<?xml version="1.0" standalone="no"?>
<!DOCTYPE svg PUBLIC "-//W3C//DTD SVG 20010904//EN"
 "http://www.w3.org/TR/2001/REC-SVG-20010904/DTD/svg10.dtd">
<svg version="1.0" xmlns="http://www.w3.org/2000/svg"
 width="240.000000pt" height="240.000000pt" viewBox="0 0 240.000000 240.000000"
 preserveAspectRatio="xMidYMid meet">
<metadata>
Created by potrace 1.14, written by Peter Selinger 2001-2017
</metadata>
<g transform="translate(0.000000,240.000000) scale(0.100000,-0.100000)"
fill="#000000" stroke="none">
<path d="M0 1200 l0 -1200 1200 0 1200 0 0 1200 0 1200 -1200 0 -1200 0 0
-1200z m1583 621 c25 -5 33 -17 63 -96 47 -121 142 -315 154 -315 12 0 58 92
130 255 29 66 59 127 66 135 12 12 50 16 184 18 94 2 170 0 170 -5 0 -33 -200
-404 -363 -675 -108 -179 -233 -396 -278 -482 l-81 -156 -96 0 c-53 0 -126 -3
-162 -6 -36 -3 -71 -1 -78 4 -18 12 10 77 175 407 125 249 125 249 113 290 -7
22 -72 159 -146 305 -74 146 -137 277 -140 292 l-6 27 74 4 c122 5 192 5 221
-2z m-1119 -43 c3 -18 10 -109 16 -203 16 -245 48 -453 94 -605 l13 -45 21 70
c33 113 58 215 112 472 28 132 57 263 65 290 l15 50 137 -4 c149 -4 223 -11
223 -20 0 -14 -104 -387 -146 -523 -25 -80 -85 -264 -135 -410 -50 -146 -98
-286 -107 -312 l-15 -46 -85 -8 c-78 -6 -237 1 -266 12 -12 5 -106 294 -151
464 -50 193 -144 720 -145 812 0 27 51 36 207 37 l142 1 5 -32z"/>
</g>
</svg>
